<svg xmlns="http://www.w3.org/2000/svg" viewBox="1.482794165611267 14.890000343322754 115.01720428466797 37.99431228637695" data-asc="1.0478515625" width="115.01720428466797" height="37.99431228637695"><defs/><g><g><g transform="translate(0, 0)"><path d="M17.09 52.39L23.66 52.39L23.68 51.95Q23.17 50.54 23.28 49.04Q23.39 47.53 23.61 46.09L25.44 34.74Q25.66 32.47 24.96 30.76Q24.27 29.05 22.92 27.88Q21.56 26.73 19.70 26.12Q17.85 25.51 15.77 25.46Q13.79 25.44 11.78 25.92Q9.77 26.39 8.11 27.42Q6.45 28.47 5.35 30.07Q4.25 31.67 4.10 33.86L10.72 33.81Q10.89 33.01 11.24 32.39Q11.60 31.76 12.13 31.37Q12.70 30.93 13.44 30.73Q14.18 30.52 15.06 30.54Q16.02 30.57 16.77 30.85Q17.53 31.13 18.04 31.64Q18.53 32.18 18.74 32.93Q18.95 33.69 18.80 34.64L18.48 36.28L14.67 36.23Q13.18 36.23 11.66 36.40Q10.13 36.57 8.69 36.99Q7.25 37.40 5.98 38.07Q4.71 38.75 3.74 39.75Q2.76 40.75 2.16 42.09Q1.56 43.43 1.49 45.19Q1.42 46.95 2.03 48.36Q2.64 49.78 3.76 50.76Q4.86 51.76 6.36 52.31Q7.86 52.86 9.52 52.88Q10.94 52.91 12.21 52.58Q13.48 52.25 14.60 51.61Q15.19 51.27 15.75 50.84Q16.31 50.42 16.85 49.93Q16.82 50.56 16.86 51.16Q16.89 51.76 17.09 52.39M11.25 47.66Q10.55 47.66 9.95 47.46Q9.35 47.27 8.94 46.90Q8.52 46.53 8.33 45.97Q8.13 45.41 8.23 44.65Q8.33 43.99 8.54 43.46Q8.76 42.92 9.08 42.50Q9.47 41.99 10.01 41.64Q10.55 41.28 11.11 40.99Q11.99 40.63 12.99 40.45Q13.99 40.28 14.97 40.28L17.97 40.31L17.14 44.87Q16.67 45.43 16.13 45.90Q15.58 46.36 14.99 46.70Q14.16 47.19 13.21 47.44Q12.26 47.68 11.25 47.66ZM31.79 39.14L31.71 39.67Q31.57 41.11 31.63 42.64Q31.69 44.17 32.01 45.61Q32.32 47.07 32.93 48.36Q33.54 49.66 34.50 50.63Q35.45 51.64 36.77 52.23Q38.09 52.83 39.84 52.88Q41.09 52.91 42.19 52.61Q43.29 52.32 44.24 51.78Q44.95 51.37 45.59 50.83Q46.24 50.29 46.83 49.63L46.48 52.39L52.42 52.39L58.91 14.89L52.27 14.89L49.73 28.39Q49.29 27.86 48.80 27.42Q48.32 26.98 47.75 26.64Q46.90 26.10 45.89 25.81Q44.87 25.51 43.75 25.49Q41.85 25.44 40.28 25.98Q38.72 26.51 37.45 27.47Q36.18 28.44 35.22 29.77Q34.25 31.10 33.57 32.64Q32.86 34.18 32.42 35.84Q31.98 37.50 31.79 39.14M38.35 39.67L38.40 39.16Q38.57 37.77 38.99 36.30Q39.40 34.84 40.19 33.64Q40.97 32.45 42.14 31.69Q43.31 30.93 44.97 30.96Q45.73 30.98 46.35 31.16Q46.97 31.35 47.46 31.71Q47.97 32.06 48.35 32.59Q48.73 33.13 49.00 33.81L47.09 44.56Q46.63 45.17 46.11 45.68Q45.58 46.19 45.00 46.56Q44.36 46.97 43.60 47.18Q42.85 47.39 41.97 47.36Q41.02 47.34 40.36 46.98Q39.70 46.63 39.28 46.07Q38.92 45.61 38.71 45.02Q38.50 44.43 38.35 43.75Q38.18 42.75 38.22 41.66Q38.26 40.58 38.35 39.67ZM84.84 39.31L84.91 38.79Q85.06 37.30 85.02 35.75Q84.99 34.20 84.69 32.74Q84.40 31.27 83.80 29.97Q83.20 28.66 82.25 27.69Q81.27 26.71 79.92 26.12Q78.56 25.54 76.76 25.49Q75.51 25.46 74.41 25.76Q73.32 26.05 72.34 26.61Q71.78 26.95 71.23 27.40Q70.68 27.86 70.17 28.39L72.75 14.89L66.11 14.89L59.62 52.39L65.63 52.39L66.60 49.56Q66.97 50.10 67.40 50.55Q67.82 51.00 68.31 51.37Q69.29 52.10 70.47 52.48Q71.66 52.86 72.97 52.88Q74.88 52.93 76.45 52.40Q78.03 51.88 79.27 50.93Q80.52 49.98 81.47 48.66Q82.42 47.34 83.11 45.80Q83.79 44.29 84.22 42.61Q84.64 40.94 84.84 39.31M78.27 38.79L78.22 39.31Q78.13 40.19 77.93 41.11Q77.73 42.04 77.44 42.90Q77.10 43.95 76.51 44.89Q75.93 45.83 75.07 46.44Q74.46 46.90 73.77 47.16Q73.07 47.41 71.83 47.41Q71.19 47.41 70.41 47.22Q69.63 47.02 69.07 46.61Q68.58 46.24 68.21 45.72Q67.85 45.19 67.63 44.51L69.46 33.91Q69.90 33.25 70.42 32.71Q70.95 32.18 71.56 31.81Q72.22 31.40 72.99 31.19Q73.75 30.98 74.66 31.01Q75.68 31.03 76.37 31.41Q77.05 31.79 77.49 32.40Q77.91 33.01 78.11 33.80Q78.32 34.59 78.39 35.45Q78.44 36.30 78.39 37.17Q78.34 38.04 78.27 38.79ZM111.52 25.44Q110.08 25.44 108.80 25.79Q107.52 26.15 106.37 26.78Q105.22 27.44 104.22 28.34Q103.22 29.25 102.34 30.32L102.51 29.25L103.03 25.98L96.88 25.98L92.29 52.39L98.90 52.39L101.66 36.50Q102.29 35.50 103.04 34.73Q103.78 33.96 104.66 33.45Q105.71 32.81 106.93 32.50Q108.15 32.18 109.57 32.20Q110.89 32.23 112.16 32.41Q113.43 32.59 114.70 32.91L116.50 26.15Q115.26 25.83 114.03 25.65Q112.79 25.46 111.52 25.44Z"/></g></g></g></svg>